HIERARCHY
ROOT hip
{
	OFFSET 0.000000 0.000000 0.000000 
	CHANNELS 6 Xposition Yposition Zposition Xrotation Zrotation Yrotation
	JOINT abdomen
	{
		OFFSET 0.000000 3.402643 0.000000 
		CHANNELS 3 Xrotation Zrotation Yrotation
		JOINT chest
		{
			OFFSET 0.000000 8.438565 -0.680529 
			CHANNELS 3 Xrotation Zrotation Yrotation
			JOINT neck
			{
				OFFSET 0.000000 10.207942 -0.272212 
				CHANNELS 3 Xrotation Zrotation Yrotation
				JOINT head
				{
					OFFSET 0.000000 3.130431 0.000000 
					CHANNELS 3 Xrotation Zrotation Yrotation
					End Site
					{
						OFFSET 0.000000 3.130435 0.000000 
					}
				}
			}
			JOINT lCollar
			{
				OFFSET 3.470700 6.669187 -0.816635 
				CHANNELS 3 Yrotation Zrotation Xrotation
				JOINT lShldr
				{
					OFFSET 3.198488 0.000000 0.000000 
					CHANNELS 3 Zrotation Yrotation Xrotation
					JOINT lForeArm
					{
						OFFSET 10.139888 0.000000 0.000000 
						CHANNELS 3 Yrotation Zrotation Xrotation
						JOINT lHand
						{
							OFFSET 8.370511 0.000000 0.000000 
							CHANNELS 3 Zrotation Yrotation Xrotation
							End Site
							{
								OFFSET 4.083176 0.000000 0.000000 
							}
						}
					}
				}
			}
			JOINT rCollar
			{
				OFFSET -3.470700 6.669187 -0.816635 
				CHANNELS 3 Yrotation Zrotation Xrotation
				JOINT rShldr
				{
					OFFSET -3.198488 0.000000 0.000000 
					CHANNELS 3 Zrotation Yrotation Xrotation
					JOINT rForeArm
					{
						OFFSET -10.139888 0.000000 0.000000 
						CHANNELS 3 Yrotation Zrotation Xrotation
						JOINT rHand
						{
							OFFSET -8.370511 0.000000 0.000000 
							CHANNELS 3 Zrotation Yrotation Xrotation
							End Site
							{
								OFFSET -4.083176 0.000000 0.000000 
							}
						}
					}
				}
			}
		}
	}
	JOINT lThigh
	{
		OFFSET 5.308129 -1.633274 1.361059 
		CHANNELS 3 Xrotation Zrotation Yrotation
		JOINT lShin
		{
			OFFSET -2.041588 -20.007561 0.000000 
			CHANNELS 3 Xrotation Zrotation Yrotation
			JOINT lFoot
			{
				OFFSET 0.000000 -19.190928 -1.224953 
				CHANNELS 3 Xrotation Yrotation Zrotation
				End Site
				{
					OFFSET 0.000000 -2.449906 4.627600 
				}
			}
		}
	}
	JOINT rThigh
	{
		OFFSET -5.308129 -1.633274 1.361059 
		CHANNELS 3 Xrotation Zrotation Yrotation
		JOINT rShin
		{
			OFFSET 2.041588 -20.007561 0.000000 
			CHANNELS 3 Xrotation Zrotation Yrotation
			JOINT rFoot
			{
				OFFSET 0.000000 -19.190928 -1.224953 
				CHANNELS 3 Xrotation Yrotation Zrotation
				End Site
				{
					OFFSET 0.000000 -2.449906 4.627600 
				}
			}
		}
	}
}
MOTION
Frames: 13
Frame Time: 0.016667
1.895595 43.075363 3.777899 -1.993250 -1.873870 -2.473890 -19.914700 2.287780 1.373230 15.394400 2.752480 0.845469 13.540600 18.105200 -8.831330 14.433800 12.202800 -3.709590 2.000000 -2.000000 0.000000 -91.345200 6.963000 154.662994 28.613600 -0.334868 0.065533 0.048040 -0.032883 -148.748001 -2.000000 2.000000 0.000000 85.864304 -0.944266 153.220993 -25.937799 0.337793 0.059802 -0.056234 0.024192 -145.593994 -5.294837 -1.096355 8.248348 29.228056 2.970585 2.136440 -17.591425 7.206032 2.494646 -10.184355 -1.979375 -5.198815 38.024136 -2.734431 -2.679718 -18.610588 0.490820 -0.450809 
1.733491 43.064175 3.758084 -2.110310 -1.707830 -2.437110 -19.764700 2.098420 1.508350 15.551400 2.626680 0.883557 13.620600 18.112000 -8.894870 14.523200 12.189500 -3.722050 2.000000 -2.000000 0.000000 -90.633904 6.322390 156.470993 29.931999 -0.333329 0.068277 0.048274 -0.033979 -149.147995 -2.000000 2.000000 0.000000 86.095398 -0.596474 150.369995 -23.496401 0.340229 0.054510 -0.055410 0.017984 -143.356995 -5.215178 -1.093910 8.271591 29.372917 2.991459 2.129937 -17.629532 7.166462 2.475191 -10.208637 -1.752657 -5.117443 38.645634 -2.695447 -2.724917 -18.040394 2.364639 0.242479 
1.544909 43.028934 3.759050 -2.227420 -1.590590 -2.281910 -19.743099 1.891850 1.541440 15.591100 2.461440 0.880158 13.491100 18.202000 -8.887540 14.437000 12.279600 -3.734860 2.000000 -2.000000 0.000000 -89.912498 6.130150 157.867004 31.601900 -0.331291 0.071700 0.048666 -0.035741 -149.792999 -2.000000 2.000000 0.000000 86.444504 -1.002360 148.289001 -22.373301 0.341273 0.052042 -0.054970 0.013521 -141.755997 -5.190138 -0.969673 8.203953 29.610056 2.986156 2.155134 -17.788757 7.041007 2.481991 -9.770309 -1.274593 -4.576278 38.105595 -2.701018 -2.696912 -16.706457 2.832113 0.361239 
1.356327 42.993702 3.760015 -2.354300 -1.483120 -2.126550 -19.712000 1.697910 1.580430 15.640500 2.305950 0.885857 13.361500 18.301901 -8.868710 14.360700 12.369200 -3.736090 2.000000 -2.000000 0.000000 -89.191101 5.918410 159.264008 33.281601 -0.329141 0.075083 0.049084 -0.037525 -150.447006 -2.000000 2.000000 0.000000 86.803101 -1.398560 146.197998 -21.250200 0.342268 0.049554 -0.054654 0.009047 -140.154007 -5.200039 -0.857657 8.158282 29.894997 2.985647 2.160923 -17.917715 6.883051 2.467729 -9.312562 -0.799659 -4.040031 37.642994 -2.720254 -2.671470 -15.453530 3.293613 0.511107 
1.149130 42.984955 3.791223 -2.530330 -1.639030 -1.890500 -19.643400 1.578930 1.541250 15.729200 2.082440 0.859441 13.515500 18.234800 -8.756070 14.410700 12.367200 -3.696330 2.000000 -2.000000 0.000000 -88.566704 5.529690 160.115005 34.834400 -0.327067 0.078152 0.049557 -0.039436 -151.149994 -2.000000 2.000000 0.000000 87.134300 -1.924630 145.552994 -20.966999 0.342512 0.048924 -0.054668 0.009293 -140.242004 -5.028031 -0.506345 7.762547 30.050264 3.004492 2.163536 -17.941166 6.936284 2.478469 -8.572988 -0.025740 -3.220495 36.567928 -2.776292 -2.589951 -16.370667 1.750884 0.129212 
0.941914 42.976212 3.822453 -2.706390 -1.785120 -1.653950 -19.574900 1.459870 1.501850 15.817800 1.868600 0.831536 13.670800 18.176500 -8.648230 14.461000 12.374800 -3.664620 2.000000 -2.000000 0.000000 -87.961800 5.131210 160.964996 36.396900 -0.324895 0.081182 0.050052 -0.041342 -151.852997 -2.000000 2.000000 0.000000 87.475197 -2.440920 144.897003 -20.674101 0.342760 0.048270 -0.054681 0.009512 -140.320007 -5.023201 -0.151956 7.369556 30.390432 3.048664 2.189368 -17.957386 6.977535 2.491439 -7.828755 0.737754 -2.390599 35.474937 -2.817884 -2.531999 -17.323641 0.226580 -0.260158 
0.720415 42.989456 3.850639 -2.697260 -2.175320 -1.274570 -19.684200 1.472290 1.340190 15.769300 1.722490 0.764033 13.992800 17.893101 -8.525490 14.536800 12.275600 -3.655500 2.000000 -2.000000 0.000000 -87.649399 5.141330 161.121002 37.959400 -0.322643 0.084153 0.050159 -0.041738 -152.000000 -2.000000 2.000000 0.000000 87.739197 -3.408020 145.052002 -21.172100 0.342336 0.049380 -0.054816 0.011558 -141.052994 -5.141860 0.491077 6.756014 30.733009 3.057317 2.187767 -18.019417 7.071989 2.506656 -7.082428 1.722845 -1.872568 34.182980 -2.873426 -2.441136 -17.293928 -0.753905 -0.524779 
0.498910 43.002827 3.878836 -2.688240 -2.565540 -0.885560 -19.793501 1.481180 1.169150 15.711000 1.586110 0.695686 14.314000 17.609800 -8.405740 14.603100 12.186300 -3.646960 2.000000 -2.000000 0.000000 -87.346802 5.141700 161.287003 39.521900 -0.320310 0.087060 0.050259 -0.042107 -152.136993 -2.000000 2.000000 0.000000 88.013000 -4.365340 145.195999 -21.679899 0.341893 0.050508 -0.054977 0.013603 -141.785004 -5.345592 1.114773 6.155105 31.123837 3.079249 2.198316 -18.044123 7.146916 2.528727 -6.227956 2.695165 -1.321790 32.804810 -2.898047 -2.351173 -17.309643 -1.737019 -0.824570 
0.289960 43.026104 3.922557 -2.600680 -2.760830 -0.616981 -19.873400 1.521150 0.997304 15.759900 1.595960 0.618097 14.790200 17.360201 -8.210040 14.809000 12.091400 -3.570920 2.000000 -2.000000 0.000000 -87.375900 5.121690 161.072998 40.918400 -0.318158 0.089604 0.050668 -0.043583 -152.682999 -2.000000 2.000000 0.000000 88.102203 -5.265450 146.044006 -22.578400 0.341086 0.052494 -0.055303 0.017005 -143.005997 -5.564406 1.491855 5.655985 31.446997 3.098742 2.228650 -18.102968 7.178704 2.562614 -5.616838 3.366597 -0.835266 31.501587 -2.956264 -2.267941 -17.407349 -2.490196 -1.030471 
0.081004 43.049515 3.966280 -2.513090 -2.946390 -0.339662 -19.953300 1.561010 0.825459 15.808700 1.615530 0.539716 15.275400 17.109100 -8.014490 15.014700 11.996400 -3.505290 2.000000 -2.000000 0.000000 -87.414803 5.091900 160.858002 42.305099 -0.315961 0.092078 0.051083 -0.045029 -153.220993 -2.000000 2.000000 0.000000 88.191399 -6.165590 146.901001 -23.476801 0.340247 0.054467 -0.055702 0.020400 -144.225998 -5.716459 1.873818 5.161521 31.779816 3.115526 2.248506 -18.224886 7.218379 2.584483 -4.854580 4.016209 -0.306280 30.062401 -2.987278 -2.178531 -17.493027 -3.258027 -1.257111 
-0.163308 43.098122 3.949058 -2.289110 -3.366460 0.056135 -20.083401 1.676190 0.520692 15.720500 1.722370 0.411002 15.576000 16.886299 -7.860740 15.169700 11.884400 -3.424760 2.000000 -2.000000 0.000000 -87.619598 5.159430 160.487000 43.623501 -0.313817 0.094380 0.051607 -0.046784 -153.875000 -2.000000 2.000000 0.000000 88.143402 -6.684340 147.485992 -24.052999 0.339693 0.055726 -0.055953 0.022271 -144.899994 -6.135830 2.581307 4.604675 31.917173 3.110606 2.235630 -18.075533 7.186276 2.586810 -4.622771 4.976020 0.081235 29.009497 -2.982668 -2.103478 -17.162220 -4.265156 -1.546322 
-0.407629 43.146866 3.931837 -2.055270 -3.786630 0.438228 -20.213301 1.800180 0.211662 15.622500 1.819410 0.272723 15.877000 16.672800 -7.703760 15.335000 11.781500 -3.340950 2.000000 -2.000000 0.000000 -87.824402 5.226950 160.115005 44.932098 -0.311637 0.096615 0.052160 -0.048560 -154.539001 -2.000000 2.000000 0.000000 88.095497 -7.212890 148.080994 -24.629200 0.339126 0.056978 -0.056226 0.024138 -145.574005 -6.571488 3.278729 4.043375 32.120461 3.141517 2.241714 -17.998465 7.147756 2.548723 -4.274070 5.921631 0.535207 27.899733 -2.965459 -2.055370 -16.878851 -5.244343 -1.827036 
-0.613593 43.191624 3.948272 -1.938410 -4.040660 0.273020 -20.254700 1.952180 0.060454 15.671000 1.946030 0.214645 16.285900 16.450800 -7.471680 15.550400 11.686100 -3.216630 2.000000 -2.000000 0.000000 -88.068398 5.372820 159.841995 45.781700 -0.310195 0.098039 0.062697 -0.060691 -155.427994 -2.000000 2.000000 0.000000 87.871597 -7.379940 148.587006 -24.931900 0.338824 0.057634 -0.056368 0.025056 -145.906006 -6.748726 3.665850 3.748885 32.275883 3.163516 2.255625 -17.914774 7.492689 2.661577 -4.175634 6.386518 0.676131 27.380175 -2.945828 -2.028711 -16.670158 -5.134920 -1.743597 
